# xmcd
#
# Track frame offsets: 
#        150
#        13314
#        31796
#        48448
#        70545
#        83424
#        104021
#        125743
#        139830
#        166277
#        179119
#        194173
#        210772
#        230694
#        250488
#        266112
#        286844
#        308236
#        328458
#
# Disc length: 4669 seconds
#
# Revision: 0
# Processed by: cddbd v1.5.2PL0 Copyright (c) Steve Scherf et al.
# Submitted via: ExactAudioCopy v0.99pb4
#
DISCID=23123b13
DTITLE=Axel Zwingenberger, Dave Green, Charlie Watts - The Magic Of Bo
DTITLE=ogie Woogie
DYEAR=2010
DGENRE=Boogie Woogie
TTITLE0=Shepperton Strut
TTITLE1=Lagonda Ride
TTITLE2=Heathrow Jet
TTITLE3=Windsor Park Walk
TTITLE4=High Barn Stampede
TTITLE5=Blues, Indeed
TTITLE6=Honky Tonk Train Blues
TTITLE7=V-Disc Stomp
TTITLE8=Smashingly Blue
TTITLE9=Second Line Bounce
TTITLE10=Bass Goin' Crazy
TTITLE11=Careless Love Swing
TTITLE12=Boogie Train Mystique
TTITLE13=Lady Be Good
TTITLE14=Boogie Asado
TTITLE15=How Long Blues
TTITLE16=Boogie Woogie Rhythm Shop
TTITLE17=Sympathy For The Drummer
TTITLE18=Farewell Smile
EXTD=
EXTT0=
EXTT1=
EXTT2=
EXTT3=
EXTT4=
EXTT5=
EXTT6=
EXTT7=
EXTT8=
EXTT9=
EXTT10=
EXTT11=
EXTT12=
EXTT13=
EXTT14=
EXTT15=
EXTT16=
EXTT17=
EXTT18=
PLAYORDER=
